<svg xmlns="http://www.w3.org/2000/svg" viewBox="0 0 472 472"><path d="M236 0C105.868 0 0 105.868 0 236c0 56.992 20.312 109.332 54.068 150.16.08.12.096.268.188.38a235.968 235.968 0 0089.1 66.492c.396.172.788.352 1.188.52a230.089 230.089 0 008.344 3.296c1.108.42 2.212.84 3.328 1.244a229.17 229.17 0 007.284 2.468c1.568.508 3.14 1 4.72 1.472 2.164.648 4.332 1.268 6.516 1.856 1.916.516 3.848.996 5.784 1.464 1.964.472 3.924.944 5.9 1.364 2.208.476 4.44.892 6.672 1.304 1.788.328 3.572.672 5.372.96 2.484.4 4.992.72 7.504 1.04 1.604.204 3.204.44 4.816.612 2.84.304 5.704.512 8.572.712 1.324.092 2.636.232 3.964.304 4.2.224 8.424.352 12.68.352s8.48-.128 12.68-.348c1.328-.072 2.64-.208 3.964-.304 2.868-.2 5.732-.408 8.572-.712 1.612-.172 3.212-.408 4.816-.612 2.508-.32 5.016-.644 7.504-1.04 1.8-.288 3.584-.632 5.372-.96 2.232-.412 4.46-.828 6.668-1.304a247.42 247.42 0 005.904-1.364c1.936-.468 3.864-.948 5.784-1.464a228.281 228.281 0 006.516-1.856c1.58-.476 3.152-.968 4.72-1.472a239.724 239.724 0 007.284-2.468c1.116-.404 2.22-.824 3.328-1.244 2.8-1.052 5.588-2.136 8.344-3.296.4-.168.792-.348 1.188-.52a235.968 235.968 0 0089.1-66.492c.092-.112.108-.26.188-.38C451.688 345.332 472 292.992 472 236 472 105.868 366.132 0 236 0zm89.728 445.584c-.548.232-1.088.48-1.636.708a223.576 223.576 0 01-8.012 3.164c-1.076.404-2.152.808-3.236 1.196a229.044 229.044 0 01-11.572 3.788c-2.12.636-4.248 1.244-6.392 1.82-1.82.484-3.648.932-5.48 1.372-1.916.46-3.832.92-5.764 1.332-2.112.448-4.236.84-6.364 1.232-1.732.32-3.46.652-5.208.932-2.384.38-4.784.684-7.184.988-1.552.196-3.096.428-4.656.592-2.732.288-5.48.484-8.228.676-1.272.088-2.532.224-3.808.292-4.052.204-8.112.324-12.188.324s-8.136-.12-12.18-.332c-1.276-.068-2.536-.2-3.808-.292-2.748-.192-5.5-.388-8.228-.676-1.564-.164-3.104-.396-4.656-.592-2.4-.304-4.8-.608-7.184-.988-1.748-.28-3.472-.616-5.208-.932-2.128-.388-4.252-.78-6.364-1.232a231.615 231.615 0 01-5.764-1.332c-1.832-.44-3.66-.888-5.48-1.372a212.713 212.713 0 01-6.392-1.82 229.044 229.044 0 01-11.572-3.788c-1.084-.388-2.156-.792-3.236-1.196a220.647 220.647 0 01-8.012-3.164c-.548-.228-1.092-.476-1.636-.708-32.868-14.124-61.748-35.768-84.516-62.748 15.464-59.8 61.376-108 120.516-126.508.276.18.572.332.852.508a98.609 98.609 0 004.908 2.892c.3.164.604.324.904.484 1.64.88 3.312 1.704 5.004 2.488.568.264 1.14.524 1.716.776 1.632.72 3.28 1.404 4.956 2.04.288.108.572.232.86.34a98.172 98.172 0 005.88 1.944c.532.16 1.068.304 1.6.456 1.64.46 3.3.884 4.976 1.26.432.096.86.208 1.296.3a101.9 101.9 0 006.2 1.112c.436.064.876.108 1.312.168 1.696.228 3.404.408 5.128.548.58.048 1.156.096 1.736.132 2.112.14 4.24.232 6.392.232s4.28-.092 6.396-.228c.58-.036 1.156-.084 1.736-.132 1.72-.14 3.432-.32 5.128-.548.436-.06.876-.104 1.312-.168a98.901 98.901 0 006.2-1.112c.432-.092.864-.2 1.296-.3 1.676-.38 3.332-.8 4.976-1.26.536-.152 1.068-.296 1.6-.456a101.119 101.119 0 005.88-1.944c.288-.108.572-.228.86-.34 1.676-.636 3.324-1.32 4.956-2.04a102.13 102.13 0 006.72-3.264c.3-.16.604-.32.904-.484 1.668-.916 3.3-1.888 4.908-2.892.28-.176.576-.324.856-.504 59.14 18.504 105.052 66.708 120.516 126.508-22.768 26.976-51.652 48.62-84.516 62.748zM144 172c0-50.728 41.272-92 92-92s92 41.272 92 92c0 32.3-16.744 60.744-41.996 77.164-1.32.86-2.66 1.68-4.016 2.468-.484.28-.964.564-1.452.836a89.575 89.575 0 01-5.076 2.624c-.396.188-.8.36-1.2.544a91.019 91.019 0 01-4.46 1.904c-.468.184-.928.376-1.4.552a89.757 89.757 0 01-5.52 1.892c-.348.108-.7.196-1.048.3-1.62.476-3.252.9-4.896 1.284-.464.108-.932.22-1.4.324-1.944.42-3.896.792-5.868 1.088-.256.04-.516.064-.772.1a89.215 89.215 0 01-5.272.58A92.558 92.558 0 01236 264a92.558 92.558 0 01-7.624-.34 92.322 92.322 0 01-5.272-.58c-.256-.036-.516-.06-.772-.1a93.488 93.488 0 01-5.868-1.088c-.468-.1-.932-.216-1.4-.324a93.646 93.646 0 01-4.896-1.284c-.348-.104-.7-.192-1.048-.3a89.757 89.757 0 01-5.52-1.892c-.472-.176-.932-.368-1.4-.552a92.708 92.708 0 01-4.46-1.904c-.4-.184-.804-.356-1.2-.544a90.949 90.949 0 01-5.076-2.624c-.488-.272-.968-.556-1.452-.836a92.374 92.374 0 01-4.016-2.468C160.744 232.744 144 204.3 144 172zm272.356 203.24c-16.964-57.972-61.46-104.704-118.676-124.616C320.988 232.304 336 203.88 336 172c0-55.14-44.86-100-100-100s-100 44.86-100 100c0 31.88 15.012 60.304 38.324 78.628-57.22 19.912-101.716 66.64-118.68 124.612C25.816 336.692 8 288.4 8 236 8 110.28 110.28 8 236 8s228 102.28 228 228c0 52.4-17.816 100.692-47.644 139.24z"/></svg>